<svg width="25" height="26" viewBox="0 0 25 26" fill="none" xmlns="http://www.w3.org/2000/svg">
<g id="Frame" clip-path="url(#clip0_1_1258)">
<g id="Group">
<path id="Vector" d="M7.5078 2.01911C6.47548 2.01911 5.4979 2.21463 4.57507 2.60566C3.66787 2.99669 2.87408 3.5324 2.19369 4.2128C1.51329 4.89319 0.977578 5.68699 0.586547 6.59418C0.195516 7.51701 0 8.49459 0 9.52691V15.5332C0 16.5655 0.195516 17.5431 0.586547 18.4659C0.977578 19.3731 1.51329 20.1669 2.19369 20.8473C2.87408 21.5277 3.66787 22.0634 4.57507 22.4544C5.4979 22.8454 6.47548 23.041 7.5078 23.041C8.54012 23.041 9.5177 22.8454 10.4405 22.4544C11.3477 22.0634 12.1415 21.5277 12.8219 20.8473C13.5023 20.1669 14.038 19.3731 14.4291 18.4659C14.8201 17.5431 15.0156 16.5655 15.0156 15.5332V9.52691C15.0156 8.49459 14.8201 7.51701 14.4291 6.59418C14.038 5.68699 13.5023 4.89319 12.8219 4.2128C12.1415 3.5324 11.3477 2.99669 10.4405 2.60566C9.5177 2.21463 8.54012 2.01911 7.5078 2.01911ZM1.50156 9.52691C1.50156 8.69793 1.65797 7.91586 1.9708 7.18073C2.28362 6.46123 2.71376 5.82776 3.2612 5.28031C3.80864 4.73287 4.44212 4.30274 5.16161 3.98991C5.89675 3.67709 6.67881 3.52067 7.5078 3.52067C8.33679 3.52067 9.11885 3.67709 9.85399 3.98991C10.5735 4.30274 11.207 4.73287 11.7544 5.28031C12.3018 5.82776 12.732 6.46123 13.0448 7.18073C13.3576 7.91586 13.514 8.69793 13.514 9.52691V15.5332C13.514 16.3621 13.3576 17.1442 13.0448 17.8793C12.732 18.5988 12.3018 19.2323 11.7544 19.7798C11.207 20.3272 10.5735 20.7573 9.85399 21.0702C9.11885 21.383 8.33679 21.5394 7.5078 21.5394C6.67881 21.5394 5.89675 21.383 5.16161 21.0702C4.44212 20.7573 3.80864 20.3272 3.2612 19.7798C2.71376 19.2323 2.28362 18.5988 1.9708 17.8793C1.65797 17.1442 1.50156 16.3621 1.50156 15.5332V9.52691ZM6.75702 6.52379V9.52691H8.25858V6.52379H6.75702ZM6.75702 11.0285V16.7297L5.0443 14.9935L3.96506 16.0728L6.96818 19.0759H8.04742L11.0505 16.0728L9.9713 14.9935L8.25858 16.7297V11.0285H6.75702Z" fill="#00CCAB"/>
</g>
</g>
<defs>
<clipPath id="clip0_1_1258">
<rect width="24.64" height="25" fill="white" transform="matrix(1 0 0 -1 0 25.03)"/>
</clipPath>
</defs>
</svg>
